<?xml version="1.0" encoding="utf-8"?>
<!-- Generator: Adobe Illustrator 24.1.1, SVG Export Plug-In . SVG Version: 6.00 Build 0)  -->
<svg version="1.1" id="Layer_1" xmlns="http://www.w3.org/2000/svg" xmlns:xlink="http://www.w3.org/1999/xlink" x="0px" y="0px"
	 viewBox="0 0 369.5 100.9" style="enable-background:new 0 0 369.5 100.9;" xml:space="preserve">
<style type="text/css">
	.st0{fill:#FFFFFF;}
	.st1{fill:#636466;}
</style>
<g>
	<path class="st0" d="M119.9,11.4C127,9,127.6,0,120.5,0c-1.9,0-4.3,1.4-5.9,4.2L105,20.7c-0.4,0.8-0.9,1.4-1.4,2
		c-2.5-3.4-1.7-8.5,1.7-10.7l-1.4-1.8c-7.5,4.8-5.3,18.5,7.2,18.5C121.8,28.7,126.7,16,119.9,11.4z M111.1,26
		c-2.1,0-3.8-0.5-5.1-1.2c0.6-0.7,1.2-1.6,1.8-2.5l6-10.4l1,0.1C123,13.7,119.7,26,111.1,26z M114.9,9.8l2.9-4.9
		c2.6-4.5,5.9-1.8,4.1,1.5C120.5,8.9,118.5,9.7,114.9,9.8z"/>
	<path class="st0" d="M259.2,19l-0.2,0.3c-2,2.3-4.3,4.2-6.5,5c0.6-0.9,1-1.9,1.5-2.7l3.9-6.7c3.3-5.6-2.1-7.5-5.7-4.3l0.7-1.2h-3.6
		l-5.6,9.7c0,0,0,0,0,0l-0.2,0.3c-1.6,1.7-3.6,2.6-5.4,2.6l3.4-5.8c2.2-3.7,0.2-7.3-3.2-7.3c-2.7,0-4.9,1.1-6.9,4.7l-1.7,3l-1.5,2.5
		l-0.2,0.2c-2.6,3-5.1,5.3-6.6,5.3c-0.8,0-1.2-0.5-0.4-1.9l5.1-9c1.5-2.7,0.1-4.7-1.9-4.7c-1.5,0-3.2,0.9-5,2.7l5.7-9.9h-3.6
		L211.4,19l-0.2,0.2c-1.3,1.5-2.9,2.9-4.3,3.9c1.1-3.4,0.9-8.6,3.1-13.1l-2.7-1.4c-1.5,2-4.7,6.7-7.9,10.4l0,0l0,0l-0.2,0.3
		c-2.6,3-5.1,5.3-6.6,5.3c-0.8,0-1.2-0.5-0.4-1.9l3.6-6.2c1.2-2.2,0.6-3.4-0.5-4.8l-2-2.4c-0.5-0.7-0.5-1.4,0.2-2.1l-1.8-2
		c-2,1.8-2.2,3.8-0.9,5.5L191,11c-1.6,2.2-3.7,5.2-6,8l-0.2,0.3c-2.6,3-5.9,5.3-8.3,5.3c-2.2,0-3.5-1.4-1.8-4.2l0.3-0.6
		c2.3,1,6.6,0.5,9.3-4.1l0.5-0.9c1.9-3.3,0.1-5.7-2.8-5.7c-2.9,0-5.2,1.5-6.7,4.1l-3.4,5.9l-0.2,0.2c-1.6,1.8-3.6,2.6-5.4,2.6
		l3.4-5.8c0.9-1.6,1.3-2.9,1.3-4.1c0-1.8-1.2-3.2-3.2-3.2c-0.9,0-1.6,0.3-2.3,0.8l4.5-7.8h-3.6l-10,17.2l-0.2,0.2
		c-2.6,3-5.1,5.3-6.6,5.3c-0.8,0-1.2-0.5-0.4-1.9l3.6-6.2c1.2-2.2,0.6-3.4-0.5-4.8l-2-2.4c-0.5-0.7-0.5-1.4,0.2-2.1l-1.8-2
		c-2,1.8-2.2,3.8-0.9,5.5l0.3,0.4c-1.6,2.2-3.7,5.2-6,8l-0.2,0.3c-2.6,3-5.1,5.3-6.6,5.3c-0.8,0-1.2-0.5-0.4-1.9l5.7-10.1h-2
		c0.1-1.5-1.4-3.6-3.7-3.6c-1.9,0-4.6,1.5-6.1,4.1l-5,8.6c-1.5,2.6-0.4,5.1,2.4,5.1c1.4,0,3.2-0.9,4.9-2.3c0.2,1.4,1.3,2.3,3.1,2.3
		c2.9,0,6.3-3.1,9.3-6.6l0,0c1.7-2,3-3.8,5.9-7.6l0.5,0.6c0.4,0.6,0.6,1.3,0.2,2l-3.8,6.5c-1.5,2.6-0.4,5.1,2.4,5.1
		c2.1,0,4.3-1.5,6.5-3.7c0,0,0,0,0,0c0,2.4,1.8,3.8,4.1,3.8c2,0,4.3-1,6.1-3.3c0.3,0,0.5,0,0.8,0c1.3,0,3.1-0.5,4.7-1.4
		c-0.2,2.6,1.7,4.5,4.8,4.5c4,0,8-3.1,11-6.6c1.7-2,3-3.8,5.9-7.6l0.5,0.6c0.4,0.6,0.6,1.3,0.2,2l-3.8,6.5c-1.5,2.6-0.4,5.1,2.4,5.1
		c2.9,0,6.3-3.1,9.3-6.6h0h0c2-2.3,3.8-4.8,5.1-6.5c-1.4,3.7-0.6,10.3-4,10.3c-1.2,0-1.7-1.3-1.7-1.3l-2.2,1.2c0,0,0.6,2.9,3.9,2.9
		c0.3,0,0.6,0,1-0.1c0,0,0.1,0,0.1,0c1.9-0.2,3.7-1.1,5.5-2.4l-1.2,2.1h3.6l5.4-9.4c5.5-6.9,7.9-6,6.4-3.4l-4.6,8
		c-1.5,2.6-0.4,5.1,2.4,5.1c2.1,0,4.4-1.6,6.6-3.7c0,4.5,6.3,5.4,10.1,0.6h0.8c1.1,0,2.5-0.3,3.8-0.9l-6.5,11.2h3.6l10.6-18.5
		c4-5.4,6.5-3.4,5.5-1.8l-5.4,9.3c-0.6,1-1.9,1.3-2.6,0l-2,1c0,0,0.6,2.9,3.9,2.9h0.2c5.2-0.1,8.6-3.2,11.5-6.6
		C260.3,19.6,259.7,19.1,259.2,19z M178.2,14c2.1-3.5,5.7-2.9,3.6,0.8l-0.5,0.9c-1.7,2.9-4,2.8-5.3,2.4L178.2,14z M132.6,19.6
		c-2.2,3.4-4.3,5-5.7,5c-0.8,0-1.2-0.5-0.4-1.9l5-8.7c1.9-3.3,5.7-2.5,4,0.8L132.6,19.6z M159.4,24.4c-0.8,0-1.4-0.5-1.4-1.4
		c0-0.5,0.2-1.1,0.6-1.8l1.3-2.2c0.3,1.5,1,2.9,2.3,3.7C161.4,23.9,160.3,24.4,159.4,24.4z M163.1,21c-0.9-0.7-1.5-1.8-1.5-3.2
		c0-2.5,2.5-6.7,4.5-6.7c0.8,0,1.3,0.6,1.3,1.5c0,0.6-0.2,1.3-0.7,2.1L163.1,21z M236.2,19.2H236c-1.2,0-2.1,1-2.1,2.1
		c0,0.4,0.1,0.9,0.3,1.2l0,0.1c-1.7,2.9-5.7,2.3-3.6-1.4l2.7-4.7l1.7-2.9c2.5-4.2,5.9-2.6,3.8,1.1L236.2,19.2z"/>
</g>
<rect x="1.7" y="69.2" transform="matrix(0.7072 -0.707 0.707 0.7072 -50.13 25.4969)" class="st0" width="8.1" height="8.1"/>
<rect x="353.7" y="69.2" transform="matrix(0.7072 -0.707 0.707 0.7072 52.9333 274.3416)" class="st0" width="8.1" height="8.1"/>
<g>
	<polygon class="st1" points="46.8,73.5 48.9,73.5 48.9,65.2 52.2,65.2 52.2,63.1 46.8,63.1 	"/>
	<path class="st1" d="M61.7,75V62.3c0-1.8-1.1-3.3-2.6-4.1c0.3,0.6,0.5,1.3,0.5,2v12.7c0,1.4-0.6,2.6-1.7,3.5c0.9,1,1.7,2.1,1.7,3.7
		v14.1c0,2.5-2.1,4.6-4.6,4.6H41.5v2.1h15.6c2.5,0,4.6-2.1,4.6-4.6V82.2c0-1.6-0.7-2.7-1.7-3.7C61.1,77.7,61.7,76.4,61.7,75z"/>
	<polygon class="st1" points="46.8,91.3 48.9,91.3 48.9,83 52.2,83 52.2,80.9 46.8,80.9 	"/>
</g>
<g>
	<polygon class="st1" points="79.8,91.3 81.9,91.3 81.9,65.2 85.2,65.2 85.2,63.1 79.8,63.1 	"/>
	<path class="st1" d="M92.1,58.3c0.3,0.6,0.5,1.3,0.5,2v34c0,2.5-2.1,4.6-4.6,4.6H77c-0.7,0-1.4-0.2-2-0.5c0.7,1.5,2.3,2.6,4.1,2.6
		h11.1c2.5,0,4.6-2.1,4.6-4.6v-34C94.7,60.5,93.6,59,92.1,58.3z"/>
</g>
<g>
	<polygon class="st1" points="112.8,73.5 114.9,73.5 114.9,65.2 118.2,65.2 118.2,63.1 112.8,63.1 	"/>
	<path class="st1" d="M125.1,82.5c1.6-0.7,2.6-2.3,2.6-4.1V62.3c0-1.8-1.1-3.4-2.6-4.1c0.3,0.6,0.5,1.3,0.5,2v16.1
		c0,1.7-1,3.3-2.6,4.1l3.1,18.4h-5.7l0.4,2.1h7.4L125.1,82.5z"/>
	<polygon class="st1" points="115.7,80.9 112.8,80.9 112.8,98.8 107.5,98.8 107.5,100.9 114.9,100.9 114.9,83 116,83 	"/>
</g>
<g>
	<polygon class="st1" points="144.8,91.3 146.9,91.3 146.9,65.2 150.2,65.2 150.2,63.1 144.8,63.1 	"/>
	<path class="st1" d="M157.2,58.3c0.3,0.6,0.5,1.3,0.5,2v34c0,2.5-2.1,4.6-4.6,4.6H142c-0.7,0-1.4-0.2-2-0.5
		c0.7,1.5,2.3,2.6,4.1,2.6h11.1c2.5,0,4.6-2.1,4.6-4.6v-34C159.7,60.5,158.7,59,157.2,58.3z"/>
</g>
<g>
	<polygon class="st1" points="177.9,91.3 179.9,91.3 179.9,65.2 183.2,65.2 183.2,63.1 177.9,63.1 	"/>
	<path class="st1" d="M190.2,58.3c0.3,0.6,0.5,1.3,0.5,2v34c0,2.5-2.1,4.6-4.6,4.6h-13.6v2.1h15.6c2.5,0,4.6-2.1,4.6-4.6v-34
		C192.8,60.5,191.7,59,190.2,58.3z"/>
</g>
<polygon class="st1" points="211.2,57.8 211.2,98.8 205.9,98.8 205.9,100.9 213.3,100.9 213.3,57.8 "/>
<g>
	<polygon class="st1" points="244.1,57.8 244.1,98.8 238.2,98.8 238.8,100.9 246.2,100.9 246.2,57.8 	"/>
	<polygon class="st1" points="231.3,79.9 231.3,98.8 226,98.8 226,100.9 233.4,100.9 233.4,87.2 	"/>
</g>
<g>
	<path class="st1" d="M263.6,83h6.1v-2.1h-8.2c-0.7,0-1.4-0.2-2-0.5C260.2,81.9,261.8,83,263.6,83z"/>
	<polygon class="st1" points="266.4,85.7 264.3,86.2 264.3,91.3 266.4,91.3 	"/>
	<path class="st1" d="M276.7,58.3c0.3,0.6,0.5,1.3,0.5,2V69l-5.4,1.2v2.6l7.5-1.7v-8.7C279.2,60.5,278.2,59,276.7,58.3z"/>
	<path class="st1" d="M276.7,76.1c0.3,0.6,0.5,1.3,0.5,2v16.2c0,2.5-2.1,4.6-4.6,4.6h-11.1c-0.7,0-1.4-0.2-2-0.5
		c0.7,1.5,2.3,2.6,4.1,2.6h11.1c2.5,0,4.6-2.1,4.6-4.6V80.1C279.2,78.3,278.2,76.8,276.7,76.1z"/>
	<polygon class="st1" points="264.3,63.1 264.3,73.5 266.4,73.5 266.4,65.2 269.7,65.2 269.7,63.1 	"/>
</g>
<g>
	<polygon class="st1" points="298,80.9 297.3,80.9 297.3,98.8 292,98.8 292,100.9 299.4,100.9 299.4,85.4 	"/>
	<polygon class="st1" points="313.2,57.8 310.4,57.8 304.2,77.2 311.1,98.8 305.1,98.8 305.6,100.6 305.7,100.9 313.2,100.9 
		306.3,79.3 	"/>
</g>
<polygon class="st1" points="330.5,57.8 330.5,98.8 325.2,98.8 325.2,100.9 332.6,100.9 332.6,57.8 "/>
<rect x="361.5" y="79.6" transform="matrix(0.707 -0.7072 0.7072 0.707 49.7266 282.278)" class="st1" width="8.1" height="2.9"/>
<rect x="9.5" y="79.7" transform="matrix(0.7071 -0.7071 0.7071 0.7071 -53.3963 33.3633)" class="st1" width="8.1" height="2.9"/>
<g>
	<path class="st0" d="M55.6,69c0,1.4-0.6,2.6-1.7,3.5c0.9,1,1.7,2.1,1.7,3.7v14.1c0,2.5-2.1,4.6-4.6,4.6H35.4V51.7h15.6
		c2.5,0,4.6,2,4.6,4.6L55.6,69L55.6,69z M48.2,59.1h-5.4v10.4h5.4V59.1z M48.2,76.9h-5.4v10.5h5.4V76.9z"/>
	<path class="st0" d="M84.1,51.7c2.5,0,4.6,2,4.6,4.6v34c0,2.5-2.1,4.6-4.6,4.6H73c-2.5,0-4.6-2.1-4.6-4.6v-34c0-2.5,2-4.6,4.6-4.6
		H84.1z M81.2,59.1h-5.4v28.3h5.4V59.1z"/>
	<path class="st0" d="M114.7,94.8l-3-17.9h-2.8v17.9h-7.4V51.7h15.6c2.5,0,4.5,2,4.5,4.6v16.1c0,1.7-1,3.3-2.6,4.1l3.1,18.4H114.7z
		 M114.2,59.1h-5.4v10.4h5.4V59.1z"/>
	<path class="st0" d="M149.1,51.7c2.5,0,4.6,2,4.6,4.6v34c0,2.5-2.1,4.6-4.6,4.6h-11.1c-2.5,0-4.6-2.1-4.6-4.6v-34
		c0-2.5,2-4.6,4.6-4.6H149.1z M146.2,59.1h-5.4v28.3h5.4V59.1z"/>
	<path class="st0" d="M182.2,51.7c2.5,0,4.6,2,4.6,4.6v34c0,2.5-2.1,4.6-4.6,4.6h-15.6V51.7H182.2z M179.3,59.1h-5.4v28.3h5.4V59.1z
		"/>
	<path class="st0" d="M199.9,51.7h7.4v43.1h-7.4V51.7z"/>
	<path class="st0" d="M240.2,51.7v43.1h-7.4L227.4,76v18.8H220V51.7h7.3l5.4,17.7V51.7H240.2z"/>
	<path class="st0" d="M268.6,69.5c2.5,0,4.6,2,4.6,4.6v16.2c0,2.5-2.1,4.6-4.6,4.6h-11.1c-2.5,0-4.6-2.1-4.6-4.6v-8.9l7.4-1.7v7.7
		h5.4V76.9h-8.2c-2.5,0-4.6-2-4.6-4.6V56.3c0-2.5,2-4.6,4.6-4.6h11.1c2.5,0,4.6,2,4.6,4.6V65l-7.5,1.7v-7.6h-5.4v10.4H268.6z"/>
	<path class="st0" d="M300.2,73.2l6.9,21.6h-7.5l-0.1-0.2l-5.5-17.7h-0.7v17.9H286V51.7h7.4v17.8h0.6l5.7-17.8h7.5L300.2,73.2z"/>
	<path class="st0" d="M319.2,51.7h7.4v43.1h-7.4V51.7z"/>
</g>
</svg>
